#!OML:ASF I:\Actors\actors\Patient Classification 2\Patient 1\Session 1\actor1.ASF
:FULLY-SPECIFIED
:DEGREES
721
root -0.61995 18.4713 5.52576 -6.09847 -4.67676 -3.12165
lowerback 10.3753 0.190318 1.64228
upperback 3.45957 0.478663 2.31233
thorax -2.22282 0.230956 1.41312
lowerneck -15.8986 -0.880054 1.16723
upperneck 12.3096 -1.521 0.415251
head 6.3409 -0.643772 -0.207702
rclavicle 1.04362e-015 2.10712e-014
rhumerus -58.0187 -6.81137 -81.654
rradius 50.6077
rwrist -5.00506
rhand -12.0939 -35.4736
rfingers 7.12502
rthumb 13.9665 -64.9845
lclavicle 1.04362e-015 2.10712e-014
lhumerus -50.1779 -26.0985 105.572
lradius 67.8838
lwrist 13.1748
lhand -0.397868 -14.0659
lfingers 7.12502
lthumb 25.2092 14.289
rfemur 13.9112 -2.56687 15.8016
rtibia -1.59028e-015
rfoot -11.33 -6.33587
rtoes -10.3059
lfemur 1.67744 -4.44339 -12.6881
ltibia 26.9855
lfoot -23.2894 5.87323
ltoes -56.4202
722
root -0.641511 18.4754 5.52158 -6.08178 -4.23649 -3.23064
lowerback 10.7776 0.288722 1.90098
upperback 3.09682 0.659519 2.2476
thorax -2.81903 0.318781 1.17625
lowerneck -15.7243 -1.19043 0.708048
upperneck 12.7209 -1.92368 0.940038
head 6.45218 -0.812963 -0.00584523
rclavicle -9.69075e-016 -7.55382e-015
rhumerus -58.5102 -7.00726 -81.571
rradius 50.5771
rwrist -4.98636
rhand -11.6076 -35.1977
rfingers 7.12502
rthumb 14.4351 -64.6757
lclavicle -9.69075e-016 -7.55382e-015
lhumerus -50.7699 -25.8629 105.622
lradius 67.8988
lwrist 12.9828
lhand -0.54689 -14.1903
lfingers 7.12502
lthumb 25.0664 14.1847
rfemur 13.9774 -3.02702 15.9186
rtibia 3.97569e-015
rfoot -11.3743 -6.23952
rtoes -10.09
lfemur 1.54848 -4.76496 -12.517
ltibia 26.9855
lfoot -23.2195 5.72623
ltoes -56.2582
723
root -0.661402 18.4799 5.51902 -6.06899 -3.79508 -3.30364
lowerback 10.8695 0.360169 2.02015
upperback 2.9496 0.77532 2.23418
thorax -3.02168 0.374974 1.07939
lowerneck -15.609 -1.45617 0.347782
upperneck 12.9036 -2.25406 1.24935
head 6.49976 -0.962632 0.118733
rclavicle 3.13086e-015 -1.03368e-014
rhumerus -58.6236 -7.15571 -81.4767
rradius 50.4687
rwrist -4.89918
rhand -11.1148 -34.8181
rfingers 7.12502
rthumb 14.9099 -64.2616
lclavicle 3.13086e-015 -1.03368e-014
lhumerus -50.9715 -25.6232 105.572
lradius 67.878
lwrist 12.9268
lhand -0.62337 -14.3512
lfingers 7.12502
lthumb 24.9932 14.0339
rfemur 14.048 -3.48181 15.9855
rtibia 6.36111e-015
rfoot -11.4354 -6.14387
rtoes -9.35746
lfemur 1.42799 -5.10835 -12.4039
ltibia 26.9854
lfoot -23.1611 5.6308
ltoes -56.2189
724
root -0.680986 18.4838 5.51617 -6.03018 -3.3558 -3.39219
lowerback 10.7792 0.400011 2.06777
upperback 2.91139 0.833471 2.27609
thorax -3.01202 0.403937 1.08889
lowerneck -15.5165 -1.66584 0.129364
upperneck 12.9814 -2.50053 1.31602
head 6.51382 -1.08658 0.151163
rclavicle -3.27995e-015 -9.14409e-015
rhumerus -58.5621 -7.20914 -81.4098
rradius 50.3962
rwrist -4.78159
rhand -10.8472 -34.5996
rfingers 7.12502
rthumb 15.1677 -64.0237
lclavicle -3.27995e-015 -9.14409e-015
lhumerus -50.9516 -25.3133 105.437
lradius 67.8377
lwrist 12.8638
lhand -0.546326 -14.4933
lfingers 7.12502
lthumb 25.067 13.8816
rfemur 14.0856 -3.93867 16.0737
rtibia 4.77083e-015
rfoot -11.5158 -6.01759
rtoes -8.71897
lfemur 1.27843 -5.51171 -12.2877
ltibia 26.9782
lfoot -23.0928 5.6041
ltoes -56.2302
725
root -0.699395 18.4876 5.51447 -5.97231 -2.93461 -3.48851
lowerback 10.6369 0.426324 2.14555
upperback 2.87544 0.874292 2.30488
thorax -2.97053 0.424362 1.07051
lowerneck -15.3972 -1.84936 -0.0845225
upperneck 13.0717 -2.71751 1.40825
head 6.52822 -1.19399 0.194238
rclavicle 4.87022e-015 7.95139e-015
rhumerus -58.468 -7.24679 -81.4002
rradius 50.323
rwrist -4.6548
rhand -10.8341 -34.6121
rfingers 7.12502
rthumb 15.1803 -64.0352
lclavicle 4.87022e-015 7.95139e-015
lhumerus -50.9437 -24.9597 105.264
lradius 67.8048
lwrist 12.714
lhand -0.527131 -14.5346
lfingers 7.12502
lthumb 25.0854 13.8377
rfemur 14.0923 -4.38005 16.176
rtibia 1.43125e-014
rfoot -11.5835 -5.90463
rtoes -8.65869
lfemur 1.1122 -5.85579 -12.1512
ltibia 26.9643
lfoot -23.0001 5.54809
ltoes -56.2701
726
root -0.717373 18.4914 5.51434 -5.94294 -2.53716 -3.60957
lowerback 10.5153 0.439769 2.27864
upperback 2.84418 0.902965 2.29841
thorax -2.93393 0.438497 0.985982
lowerneck -15.2446 -2.01221 -0.2549
upperneck 13.1283 -2.92743 1.56949
head 6.52734 -1.29042 0.253667
rclavicle -1.25483e-014 6.36111e-015
rhumerus -58.3605 -7.33112 -81.4451
rradius 50.2685
rwrist -4.59255
rhand -10.8895 -34.6983
rfingers 7.12502
rthumb 15.1269 -64.1255
lclavicle -1.25483e-014 6.36111e-015
lhumerus -51.0052 -24.6553 105.059
lradius 67.8293
lwrist 12.553
lhand -0.616969 -14.539
lfingers 7.12502
lthumb 24.9993 13.8453
rfemur 14.1278 -4.79883 16.3054
rtibia 1.27222e-014
rfoot -11.6322 -5.83491
rtoes -8.71514
lfemur 0.989606 -6.09514 -11.9632
ltibia 26.9396
lfoot -22.9097 5.41101
ltoes -56.2858
727
root -0.735956 18.4947 5.51482 -5.93553 -2.15578 -3.71425
lowerback 10.4474 0.457334 2.3597
upperback 2.81175 0.933518 2.29235
thorax -2.92883 0.453529 0.930601
lowerneck -15.1505 -2.16821 -0.403106
upperneck 13.2237 -3.14087 1.76938
head 6.54991 -1.38342 0.320841
rclavicle -1.91579e-014 -1.27222e-014
rhumerus -58.2834 -7.46302 -81.4807
rradius 50.288
rwrist -4.58622
rhand -10.9595 -34.7711
rfingers 7.12502
rthumb 15.0595 -64.2034
lclavicle -1.91579e-014 -1.27222e-014
lhumerus -51.0661 -24.4081 104.881
lradius 67.8042
lwrist 12.4268
lhand -0.714142 -14.4557
lfingers 7.12502
lthumb 24.9062 13.9416
rfemur 14.1909 -5.19806 16.415
rtibia 9.54166e-015
rfoot -11.6958 -5.77396
rtoes -8.53363
lfemur 0.903853 -6.35686 -11.7978
ltibia 26.8976
lfoot -22.8293 5.25674
ltoes -56.2373
728
root -0.753913 18.4976 5.51406 -5.90876 -1.80742 -3.75228
lowerback 10.3916 0.500993 2.33545
upperback 2.76967 0.988773 2.29705
thorax -2.94237 0.481078 0.942354
lowerneck -15.1229 -2.32528 -0.585534
upperneck 13.385 -3.35505 1.99744
head 6.60689 -1.47494 0.401465
rclavicle -2.42766e-014 1.74931e-014
rhumerus -58.2483 -7.55049 -81.5255
rradius 50.3715
rwrist -4.54498
rhand -11.0863 -35.0024
rfingers 7.12502
rthumb 14.9373 -64.4438
lclavicle -2.42766e-014 1.74931e-014
lhumerus -51.0984 -24.1633 104.745
lradius 67.7068
lwrist 12.3515
lhand -0.767217 -14.3836
lfingers 7.12502
lthumb 24.8553 14.0207
rfemur 14.2276 -5.55779 16.4575
rtibia 4.29375e-014
rfoot -11.7459 -5.69776
rtoes -8.45735
lfemur 0.810923 -6.62042 -11.7145
ltibia 26.8391
lfoot -22.7389 5.13356
ltoes -56.1946
729
root -0.770262 18.5 5.51362 -5.8864 -1.5283 -3.75929
lowerback 10.2978 0.558818 2.2813
upperback 2.74265 1.05782 2.30638
thorax -2.91998 0.515904 0.974465
lowerneck -15.0332 -2.4652 -0.796617
upperneck 13.4834 -3.53214 2.18509
head 6.63313 -1.55466 0.478491
rclavicle -1.40392e-014 3.97569e-016
rhumerus -58.2091 -7.54719 -81.5871
rradius 50.4888
rwrist -4.48477
rhand -11.1536 -35.4495
rfingers 7.12502
rthumb 14.8725 -64.8957
lclavicle -1.40392e-014 3.97569e-016
lhumerus -51.1342 -23.9009 104.621
lradius 67.6324
lwrist 12.3328
lhand -0.742241 -14.3778
lfingers 7.12502
lthumb 24.8792 14.0232
rfemur 14.2591 -5.84476 16.4735
rtibia -1.59028e-015
rfoot -11.7655 -5.60103
rtoes -8.44691
lfemur 0.74761 -6.80293 -11.664
ltibia 26.7742
lfoot -22.6634 5.07776
ltoes -56.2771
730
root -0.784092 18.5026 5.51536 -5.86211 -1.3238 -3.82253
lowerback 10.1668 0.61361 2.31669
upperback 2.72171 1.13037 2.31541
thorax -2.8691 0.552285 0.956084
lowerneck -14.9014 -2.57475 -0.947181
upperneck 13.5592 -3.66884 2.29652
head 6.64221 -1.61906 0.525971
rclavicle -8.44835e-016 -1.51076e-014
rhumerus -58.1031 -7.55453 -81.6259
rradius 50.5025
rwrist -4.47708
rhand -11.1067 -35.5868
rfingers 7.12502
rthumb 14.9177 -65.0297
lclavicle -8.44835e-016 -1.51076e-014
lhumerus -51.1724 -23.6678 104.48
lradius 67.5502
lwrist 12.2866
lhand -0.726243 -14.3478
lfingers 7.12502
lthumb 24.8946 14.0511
rfemur 14.2756 -6.06364 16.5555
rtibia 2.70347e-014
rfoot -11.7868 -5.54196
rtoes -8.40785
lfemur 0.714097 -6.96061 -11.5629
ltibia 26.7073
lfoot -22.6058 5.06779
ltoes -56.4057
731
root -0.796954 18.5054 5.51732 -5.82949 -1.16082 -3.94678
lowerback 10.0543 0.671175 2.42469
upperback 2.70826 1.21429 2.3258
thorax -2.819 0.594039 0.897046
lowerneck -14.8693 -2.68118 -1.05637
upperneck 13.7021 -3.81622 2.43166
head 6.69025 -1.68283 0.571745
rclavicle -5.8393e-015 3.77691e-015
rhumerus -57.9279 -7.64201 -81.6422
rradius 50.4095
rwrist -4.45068
rhand -11.0441 -35.2805
rfingers 7.12502
rthumb 14.978 -64.7189
lclavicle -5.8393e-015 3.77691e-015
lhumerus -51.1508 -23.4609 104.271
lradius 67.4799
lwrist 11.9466
lhand -0.45942 -14.0829
lfingers 7.12502
lthumb 25.1503 14.2804
rfemur 14.2713 -6.24925 16.7113
rtibia -2.06736e-014
rfoot -11.8025 -5.52104
rtoes -8.51619
lfemur 0.685241 -7.14797 -11.4032
ltibia 26.6403
lfoot -22.5693 5.09435
ltoes -56.4781
732
root -0.809625 18.5081 5.51975 -5.80831 -0.982623 -4.01356
lowerback 9.97864 0.710191 2.4547
upperback 2.70457 1.26661 2.33288
thorax -2.78052 0.620351 0.882073
lowerneck -14.9127 -2.78946 -1.21928
upperneck 13.8829 -3.96628 2.63105
head 6.76636 -1.7439 0.645429
rclavicle 4.32357e-015 2.90226e-014
rhumerus -57.7441 -7.71043 -81.6421
rradius 50.3101
rwrist -4.3077
rhand -10.942 -34.9126
rfingers 7.12502
rthumb 15.0764 -64.3436
lclavicle 4.32357e-015 2.90226e-014
lhumerus -51.0344 -23.1591 104.013
lradius 67.4158
lwrist 11.3237
lhand 0.0740378 -13.606
lfingers 7.12502
lthumb 25.6613 14.6845
rfemur 14.2846 -6.44201 16.7993
rtibia -4.77083e-015
rfoot -11.8049 -5.48642
rtoes -8.6295
lfemur 0.664233 -7.35669 -11.313
ltibia 26.5748
lfoot -22.549 5.17805
ltoes -56.5511
733
root -0.819698 18.5109 5.52381 -5.80532 -0.824149 -4.0667
lowerback 9.93028 0.732263 2.48636
upperback 2.67735 1.29865 2.34489
thorax -2.78161 0.636164 0.873308
lowerneck -14.8318 -2.86708 -1.28933
upperneck 14.0129 -4.07097 2.68982
head 6.79937 -1.79226 0.66529
rclavicle 2.85008e-014 9.74045e-015
rhumerus -57.6793 -7.64808 -81.6611
rradius 50.3005
rwrist -4.20929
rhand -10.8654 -34.6331
rfingers 7.12502
rthumb 15.1501 -64.0585
lclavicle 2.85008e-014 9.74045e-015
lhumerus -50.9677 -22.8094 103.834
lradius 67.3239
lwrist 10.9567
lhand 0.383052 -13.2267
lfingers 7.12502
lthumb 25.9572 15.0209
rfemur 14.3225 -6.61023 16.8602
rtibia -1.59028e-014
rfoot -11.8276 -5.43285
rtoes -8.41009
lfemur 0.671324 -7.54344 -11.2499
ltibia 26.5124
lfoot -22.5111 5.22319
ltoes -56.5561
734
root -0.827695 18.5133 5.52847 -5.82152 -0.713477 -4.13377
lowerback 9.8886 0.765889 2.56409
upperback 2.63806 1.35107 2.35139
thorax -2.7976 0.661716 0.830382
lowerneck -14.6399 -2.91302 -1.24103
upperneck 14.0886 -4.13408 2.60984
head 6.78936 -1.82819 0.627376
rclavicle 5.889e-015 -1.98785e-015
rhumerus -57.7079 -7.57374 -81.6948
rradius 50.3611
rwrist -4.17881
rhand -10.8941 -34.3734
rfingers 7.12502
rthumb 15.1225 -63.8009
lclavicle 5.889e-015 -1.98785e-015
lhumerus -51.0224 -22.5512 103.727
lradius 67.2498
lwrist 10.8864
lhand 0.379415 -13.072
lfingers 7.12502
lthumb 25.9537 15.1761
rfemur 14.376 -6.73105 16.9362
rtibia -1.59028e-014
rfoot -11.8563 -5.39968
rtoes -8.30792
lfemur 0.717278 -7.73251 -11.1897
ltibia 26.452
lfoot -22.5019 5.28474
ltoes -56.5439
735
root -0.835479 18.5157 5.53185 -5.81832 -0.583186 -4.14872
lowerback 9.84651 0.796005 2.58941
upperback 2.59592 1.39287 2.33395
thorax -2.81693 0.682136 0.793332
lowerneck -14.4974 -2.95836 -1.27083
upperneck 14.1782 -4.19627 2.62873
head 6.79613 -1.85852 0.633358
rclavicle 1.44119e-015 4.96962e-015
rhumerus -57.6912 -7.59147 -81.733
rradius 50.3521
rwrist -3.97695
rhand -11.0397 -34.2332
rfingers 7.12502
rthumb 14.9822 -63.6713
lclavicle 1.44119e-015 4.96962e-015
lhumerus -51.1242 -22.3729 103.615
lradius 67.2042
lwrist 10.8108
lhand 0.247446 -12.9945
lfingers 7.12502
lthumb 25.8274 15.272
rfemur 14.409 -6.86654 16.9575
rtibia 3.18055e-014
rfoot -11.8752 -5.38868
rtoes -8.44657
lfemur 0.735519 -7.93718 -11.1903
ltibia 26.392
lfoot -22.5293 5.43168
ltoes -56.5967
